# xmcd
#
# Track frame offsets: 
#        150
#        11877
#        24899
#        40995
#        58315
#        75831
#        91908
#        105762
#        117259
#        131253
#        152909
#        166689
#        177606
#        199582
#        215771
#        226430
#        238077
#        250496
#        268649
#        281757
#        302045
#        319518
#        339098
#
# Disc length: 4733 seconds
#
# Revision: 0
# Processed by: cddbd v1.5.2PL0 Copyright (c) Steve Scherf et al.
# Submitted via: ExactAudioCopy v0.99pb5
#
DISCID=32127b17
DTITLE=Willie Nelson - Legend
DYEAR=2008
DGENRE=Country
TTITLE0=On the road again
TTITLE1=Crazy
TTITLE2=Always on my mind
TTITLE3=Me and Paul
TTITLE4=Stardust
TTITLE5=Whiskey River (live)
TTITLE6=Highwayman
TTITLE7=Night life
TTITLE8=My heroes have always been cowboys
TTITLE9=Pancho and Lefty
TTITLE10=Funny how time slips away
TTITLE11=Hello Walls
TTITLE12=City of New Orleans
TTITLE13=Blue skies
TTITLE14=Blue eyes crying in the rain
TTITLE15=Mammas don't let your babies grow up to be cowboys
TTITLE16=A song for you (live)
TTITLE17=Help me make it through the night
TTITLE18=Lost highway
TTITLE19=Angel flying close to the ground
TTITLE20=Without a song
TTITLE21=Georgia on my mind
TTITLE22=To all the girls I've loved before
EXTD=
EXTT0=
EXTT1=
EXTT2=
EXTT3=
EXTT4=
EXTT5=
EXTT6=
EXTT7=
EXTT8=
EXTT9=
EXTT10=
EXTT11=
EXTT12=
EXTT13=
EXTT14=
EXTT15=
EXTT16=
EXTT17=
EXTT18=
EXTT19=
EXTT20=
EXTT21=
EXTT22=
PLAYORDER=
